<svg width="36" height="37" viewBox="0 0 36 37" fill="none" xmlns="http://www.w3.org/2000/svg">
<g id="Property 1=Variant2">
<path id="Vector" d="M17.8256 0.651367C7.98107 0.651367 0 8.63244 0 18.4769C0 28.3229 7.98107 36.3025 17.8256 36.3025C27.6693 36.3025 35.6504 28.3229 35.6504 18.4769C35.6504 8.63244 27.6693 0.651367 17.8256 0.651367ZM27.7534 27.1352C27.7534 27.9283 27.0954 28.5703 26.2831 28.5703H9.3327C8.51971 28.5703 7.86228 27.9283 7.86228 27.1352V9.98689C7.86228 9.19511 8.51971 8.55187 9.3327 8.55187H26.2831C27.0954 8.55187 27.7534 9.19511 27.7534 9.98689V27.1352Z" fill="#FEC626"/>
<path id="Vector_2" d="M21.2665 16.0591C19.6725 16.0591 18.9584 16.9342 18.5584 17.5506V17.5803H18.5386C18.5456 17.5718 18.5527 17.5606 18.5584 17.5506V16.2711H15.5547C15.5936 17.118 15.5547 25.3083 15.5547 25.3083H18.5584V20.2609C18.5584 19.9895 18.5781 19.7223 18.6573 19.5286C18.8751 18.9899 19.3699 18.4286 20.1991 18.4286C21.287 18.4286 21.7211 19.2586 21.7211 20.473V25.3083H24.7255V20.1266C24.7255 17.3499 23.2431 16.0591 21.2665 16.0591Z" fill="#FEC626"/>
<path id="Vector_3" d="M12.4094 11.9121C11.3822 11.9121 10.71 12.5879 10.71 13.4744C10.71 14.3411 11.3617 15.0367 12.3698 15.0367H12.3896C13.4373 15.0367 14.0898 14.3411 14.0898 13.4744C14.0699 12.5879 13.4373 11.9121 12.4094 11.9121Z" fill="#FEC626"/>
<path id="Vector_4" d="M13.8918 16.271H10.8867V25.3082H13.8918V16.271Z" fill="#FEC626"/>
</g>
</svg>
