<svg width="91" height="64" viewBox="0 0 91 64" fill="none" xmlns="http://www.w3.org/2000/svg">
<g clip-path="url(#clip0_40000002_1727)">
<path d="M44.3191 63.374V57.442C44.3191 56.4285 44.3191 54.6101 40.8314 54.6101C39.9073 54.6101 39.0131 54.7293 38.1188 55.0274C37.5226 55.2063 37.3438 55.4448 37.3438 55.7429V63.4336C37.3438 63.7317 37.4332 63.7615 37.6717 63.7615H38.5063C38.7448 63.7615 38.864 63.7317 38.864 63.4038V56.339C38.864 55.9515 39.5198 55.5342 40.742 55.5342C42.769 55.5342 42.769 56.816 42.769 57.6506V63.4038C42.769 63.7019 42.8882 63.7615 43.1565 63.7615H44.1104C44.2893 63.7019 44.3191 63.5528 44.3191 63.374Z" fill="white"/>
<path d="M51.8902 59.3199C51.8902 60.9296 51.5623 61.9729 51.0854 62.4201C50.6979 62.8076 50.1315 63.0163 49.5651 62.9864C48.9988 63.0163 48.4622 62.8076 48.0747 62.4201C47.5977 61.9729 47.2698 60.9296 47.2698 59.3199C47.2698 57.7102 47.5977 56.6371 48.0747 56.19C48.4622 55.8025 48.9988 55.5938 49.5651 55.6236C50.1315 55.5938 50.6681 55.8025 51.0854 56.19C51.5623 56.6371 51.8902 57.6804 51.8902 59.3199ZM53.4999 59.3199C53.4999 57.2631 52.8441 55.9217 51.8306 55.2659C50.4594 54.4014 48.7007 54.4014 47.3295 55.2659C46.316 55.9217 45.6602 57.2631 45.6602 59.3199C45.6602 61.3768 46.316 62.6884 47.3295 63.374C48.7007 64.2384 50.4594 64.2384 51.8306 63.374C52.8143 62.6884 53.4999 61.3768 53.4999 59.3199Z" fill="white"/>
<path d="M59.6412 55.5044C59.6412 54.8784 58.5681 54.6102 57.3758 54.6102C56.72 54.6102 56.0343 54.6996 55.4084 54.8785C54.8122 55.0275 54.6035 55.2958 54.6035 55.5939V63.4635C54.6035 63.7317 54.7228 63.7615 54.9612 63.7615H55.8257C56.0343 63.7615 56.1536 63.7317 56.1536 63.4635V56.2497C56.1536 55.8025 56.5113 55.4746 56.9584 55.4746C56.9882 55.4746 57.018 55.4746 57.0479 55.4746C58.1508 55.4746 58.3296 56.2795 58.9258 56.2795C59.3133 56.2795 59.6412 55.9814 59.6412 55.5641C59.6711 55.5641 59.6412 55.5342 59.6412 55.5044Z" fill="white"/>
<path d="M65.7509 62.3009C65.7509 62.748 65.0355 62.9865 64.2306 62.9865C62.5613 62.9865 61.3689 61.5855 61.3689 59.2008C61.3689 57.1141 62.5017 55.7131 64.1114 55.7131C64.7076 55.6833 65.3037 55.8622 65.7807 56.2795V62.3009H65.7509ZM67.2711 62.8077V51.987C67.2711 51.6889 67.1817 51.6293 66.9134 51.6293H66.049C65.7509 51.6293 65.7211 51.7485 65.7211 52.0168V55.1467C65.1547 54.8188 64.4989 54.6698 63.8431 54.6698C61.1603 54.6698 59.7891 57.2036 59.7891 59.32C59.7891 62.45 61.5478 64 64.171 64C65.4528 64 67.2711 63.3442 67.2711 62.8077Z" fill="white"/>
<path d="M70.8476 63.4336V55.1467C70.8476 54.8784 70.7879 54.8188 70.4898 54.8188H69.5956C69.2975 54.8188 69.2975 54.9082 69.2975 55.1467V63.4336C69.2975 63.6721 69.2975 63.7317 69.5658 63.7317H70.4898C70.7581 63.7317 70.8476 63.7019 70.8476 63.4336ZM71.0264 52.3447C70.9966 51.8677 70.6091 51.4802 70.1023 51.4802C69.5956 51.4504 69.1782 51.8081 69.1484 52.3148C69.1484 52.3447 69.1484 52.3745 69.1484 52.4043C69.1484 52.911 69.536 53.2985 70.0427 53.2985H70.0725C70.5793 53.3284 70.9966 52.911 71.0264 52.4043C71.0264 52.3745 71.0264 52.3447 71.0264 52.3447Z" fill="white"/>
<path d="M80.9231 63.4933V51.8081C80.9231 51.5696 80.8039 51.5696 80.5952 51.5696H79.6711C79.4923 51.5696 79.373 51.5994 79.373 51.8379V63.4336C79.373 63.6721 79.4327 63.7019 79.6711 63.7019H80.5952C80.8337 63.7317 80.9231 63.7317 80.9231 63.4933ZM86.1993 63.5529C86.1993 63.4634 86.1397 63.4038 86.0801 63.3144L82.8011 58.9921L82.7713 58.9623C84.0531 57.9786 85.0964 56.7564 85.8416 55.3256C85.9012 55.2362 85.931 55.1169 85.931 54.9977C85.931 54.8486 85.8416 54.8188 85.6329 54.8188H84.8281C84.53 54.8188 84.381 54.8188 84.2915 55.0871C83.7252 56.667 82.652 58.0084 81.2212 58.9027C81.1914 58.9325 81.1616 58.9623 81.1616 59.0219C81.1616 59.0517 81.1616 59.0815 81.1914 59.1113L84.2617 63.5231C84.4406 63.7913 84.5002 63.7913 84.7685 63.7913H85.9608C86.0205 63.7615 86.1993 63.7317 86.1993 63.5529Z" fill="white"/>
<path d="M78.1806 61.3172C78.1806 58.4257 73.9179 58.8728 73.9179 56.9651C73.9179 56.3093 74.4246 55.6237 75.4083 55.6237C76.392 55.6237 76.6603 56.2795 77.1969 56.2795C77.5248 56.3093 77.793 56.041 77.8228 55.7131V55.6833C77.8228 55.0275 76.6901 54.64 75.4977 54.64C73.9179 54.64 72.5467 55.4746 72.5467 57.0843C72.5467 58.5747 73.59 59.2007 74.8718 59.7373C75.8853 60.1546 76.8093 60.5421 76.8093 61.4662C76.8093 62.1816 76.243 62.9865 75.0208 62.9865C73.7986 62.9865 73.4707 62.0922 72.8745 62.0922C72.5765 62.0922 72.2188 62.2114 72.2188 62.6586C72.2188 63.374 73.59 63.9702 75.0208 63.9702C76.5411 64 78.1806 63.1653 78.1806 61.3172Z" fill="white"/>
<path d="M7.29563 63.374V57.442C7.29563 56.4285 7.29563 54.6102 3.80797 54.6102C2.88389 54.6102 1.98962 54.7294 1.09535 55.0275C0.499167 55.2064 0.320312 55.4448 0.320312 55.7429V63.4336C0.320312 63.7317 0.40974 63.7615 0.648212 63.7615H1.48286C1.72134 63.7615 1.84057 63.7317 1.84057 63.4038V56.3391C1.84057 55.9516 2.49637 55.5343 3.71854 55.5343C5.74556 55.5343 5.74556 56.816 5.74556 57.6507V63.4038C5.74556 63.7019 5.86479 63.7615 6.13307 63.7615H7.08696C7.26582 63.7019 7.29563 63.5529 7.29563 63.374Z" fill="white"/>
<path d="M14.8673 59.32C14.8673 60.9297 14.5394 61.973 14.0625 62.4201C13.675 62.8077 13.1086 63.0163 12.5422 62.9865C11.9758 63.0163 11.4393 62.8077 11.0518 62.4201C10.5748 61.973 10.2469 60.9297 10.2469 59.32C10.2469 57.7103 10.5748 56.6372 11.0518 56.19C11.4393 55.8025 11.9758 55.5939 12.5422 55.6237C13.1086 55.5939 13.6451 55.8025 14.0625 56.19C14.5394 56.6372 14.8673 57.6507 14.8673 59.32ZM16.4472 59.32C16.4472 57.2632 15.7914 55.9218 14.7779 55.266C14.1221 54.8188 13.3173 54.6102 12.5124 54.6102C11.7076 54.6102 10.9325 54.8188 10.2767 55.2362C9.26322 55.892 8.60742 57.2334 8.60742 59.2902C8.60742 61.347 9.26322 62.6586 10.2767 63.3442C10.9623 63.7615 11.7374 64 12.5124 63.9702C13.3173 63.9702 14.0923 63.7615 14.7779 63.3442C15.7914 62.6884 16.4472 61.347 16.4472 59.32Z" fill="white"/>
<path d="M30.6656 59.3199C30.6656 60.9296 30.3377 61.9729 29.8608 62.4201C28.9963 63.1653 27.7145 63.1653 26.8501 62.4201C26.3731 61.9729 26.0452 60.9296 26.0452 59.3199C26.0452 57.7102 26.3731 56.6371 26.8501 56.19C27.7145 55.4448 28.9963 55.4448 29.8608 56.19C30.3675 56.6371 30.6656 57.6804 30.6656 59.3199ZM32.2753 59.3199C32.2753 57.2631 31.6195 55.9217 30.606 55.2659C29.2348 54.4014 27.4761 54.4014 26.1049 55.2659C25.0913 55.9217 24.4355 57.2631 24.4355 59.3199C24.4355 61.3768 25.0913 62.6884 26.1049 63.374C27.4761 64.2384 29.2348 64.2384 30.606 63.374C31.6195 62.6884 32.2753 61.3768 32.2753 59.3199Z" fill="white"/>
<path d="M24.2869 54.9977C24.2869 54.8188 24.1378 54.8188 24.0484 54.8188H23.1839C23.0647 54.8487 23.0349 54.8785 22.9753 55.0573L20.7098 61.6153L18.3549 55.0871C18.2654 54.8487 18.2356 54.8188 17.9673 54.8188H16.924C16.8644 54.8188 16.6855 54.8189 16.6855 55.0275C16.6855 55.1169 16.7154 55.2064 16.7452 55.266L19.8751 63.4635C19.9645 63.6721 19.9943 63.7318 20.1434 63.7318H20.8886C21.0973 63.7318 21.1271 63.7019 21.2165 63.4635L24.257 55.2362C24.2869 55.1766 24.3167 55.0871 24.2869 54.9977Z" fill="white"/>
<path d="M88.2273 47.7541C89.5091 47.7541 90.5226 48.7974 90.5226 50.0792C90.5226 51.361 89.4793 52.3745 88.1975 52.3745C86.9157 52.3745 85.9022 51.3312 85.9022 50.0792C85.9022 48.7676 86.9455 47.7541 88.2273 47.7541ZM88.2273 47.2772C86.7071 47.2772 85.4551 48.5291 85.4849 50.0494C85.4849 51.5697 86.7369 52.8216 88.2571 52.7918C89.7774 52.7918 90.9996 51.5399 90.9996 50.0196C90.9996 48.5291 89.7476 47.2772 88.2273 47.2772ZM87.035 51.5398H87.5119V50.2879H87.81C88.1975 50.2879 88.3466 50.4369 88.7043 51.0927L88.9725 51.5697H89.5687L89.211 51.0033C88.8533 50.4071 88.6745 50.3177 88.5254 50.2581V50.2283C89.0024 50.2283 89.3601 49.8705 89.3601 49.3936C89.3601 49.1551 89.2408 48.9465 89.062 48.7974C88.8235 48.5888 88.436 48.5888 88.0783 48.5888H87.035V51.5398ZM87.5119 48.9763H88.0485C88.3466 48.9763 88.7937 48.9763 88.7937 49.4234C88.7937 49.8705 88.2869 49.8705 88.0783 49.8705H87.4821L87.5119 48.9763Z" fill="white"/>
<path d="M22.7363 20.0614C23.4517 21.0749 24.8826 19.3758 24.7633 19.0777C24.6441 18.7796 22.0507 19.0479 22.7363 20.0614Z" fill="white"/>
<path d="M28.5793 1.57985C31.0535 1.60966 33.0507 3.60687 33.0507 6.11083C33.0209 8.58498 31.0237 10.5822 28.5197 10.5822C26.0456 10.5524 24.0484 8.55517 24.0484 6.08102C24.0484 3.57706 26.0754 1.57985 28.5793 1.57985ZM28.3707 13.5631C32.1266 13.5333 35.1373 10.4928 35.1075 6.73682C35.0777 2.98088 32.067 -0.0298337 28.3111 -2.46854e-05C24.5849 0.0297843 21.5742 3.0405 21.5742 6.76663C21.5742 10.5226 24.6445 13.5631 28.3707 13.5631Z" fill="white"/>
<path d="M61.3092 40.0335C61.2496 40.4211 60.8919 40.749 60.8025 39.9441C60.6832 38.9306 60.1467 36.5757 59.9678 35.592C59.8188 34.6679 60.2957 31.8659 60.4746 29.5408C60.4746 29.3321 60.7131 29.3321 60.8621 29.4811C61.8756 30.5245 61.5179 38.4537 61.3092 40.0335ZM58.8649 27.0964C58.7158 29.7494 58.1197 33.4755 57.1956 33.8631C56.2715 34.2506 54.8705 31.8361 47.448 31.7168C42.1718 31.6274 38.1178 32.313 37.3726 37.0824C37.313 37.4402 37.1043 37.3507 36.9553 37.2017C35.5244 35.6516 34.183 34.9362 32.0666 33.714C29.9501 32.4918 28.5193 30.7927 28.251 29.1234C27.9827 27.4541 28.5789 25.2483 31.5896 21.1942C32.007 20.6279 32.0964 20.6875 33.7657 21.3135C33.6465 24.0261 32.9608 25.5463 32.6926 26.9474C32.4243 28.3484 34.0042 28.6763 35.3754 28.3484C36.7466 28.0205 38.088 26.5599 38.6842 22.6549C39.2207 22.7741 39.6679 22.8337 40.2044 22.9232C40.2939 26.9772 40.5323 27.9013 40.6814 28.2888C41.0093 29.034 41.7545 29.2725 42.3805 29.3321C45.5999 29.5706 48.7 29.4811 49.8029 28.408C50.9059 27.3349 50.5184 24.6819 50.2203 23.251C50.727 23.1914 51.1444 23.1616 51.6511 23.102C52.456 24.0559 52.8733 25.2483 52.8435 26.5002C52.8435 27.4243 53.8868 27.9013 55.3474 26.9176C56.8081 25.9339 56.6292 24.1751 55.8542 22.5953C59.163 22.2972 59.0139 24.4434 58.8649 27.0964ZM26.6711 28.1695C25.9557 27.2455 25.0316 24.98 24.2268 24.354C22.6767 23.1318 21.3353 24.0857 20.7391 23.3703C20.0833 22.5953 19.8151 22.5356 20.441 21.7904L21.3949 20.5086C21.693 20.1211 21.6334 19.3759 21.7526 19.0778C21.8719 18.7797 22.5873 17.8258 23.2729 17.2296C24.0479 16.5738 24.6739 16.8719 27.0885 18.3027C30.0097 20.0615 30.904 19.674 29.9203 21.2538C29.2347 22.2375 27.2077 24.8905 26.6711 28.1695ZM34.183 26.3214C34.6003 24.8309 34.8984 23.2809 35.0773 21.7606C35.8821 21.9991 36.7168 22.2375 37.5216 22.4164C36.9553 25.9339 35.8523 26.9474 35.2561 27.1858C34.809 27.3647 33.8551 27.4541 34.183 26.3214ZM49.0875 23.3703C49.5049 24.9204 49.4452 26.9474 48.8491 27.5436C47.925 28.4676 43.7219 28.2888 42.5295 28.1099C42.2315 28.0503 41.8737 27.9907 41.6949 27.156C41.516 26.1425 41.4564 24.3242 41.3968 23.102C43.9604 23.4299 46.524 23.5193 49.0875 23.3703ZM54.7811 22.6847C55.4965 23.9963 55.5561 24.7713 55.3474 25.4271C55.1388 26.0829 54.2147 26.4406 54.0358 26.381C54.0358 25.1588 53.6781 23.9367 52.9627 22.953C53.5589 22.8337 54.1849 22.7443 54.7811 22.6847ZM62.6208 25.5165C61.6968 21.224 57.9706 21.1048 55.9734 21.2538C53.9166 21.4029 50.0414 22.0289 46.047 22.0289C40.6516 22.0289 34.6003 20.5086 29.9501 18.3624C29.1453 18.0047 29.5626 17.8258 29.9203 17.647C31.6492 16.6931 33.1695 15.8286 34.0936 14.3381C34.809 13.2054 34.5407 12.8179 33.7359 13.4737C31.4108 15.4709 28.1616 16.0373 25.2701 14.9939C21.9315 13.8016 20.6199 10.5822 20.3218 9.77736C20.0237 8.97252 19.6064 8.9129 19.6064 10.1053C19.6064 13.0862 20.9478 14.9045 21.3949 15.4411C21.8421 15.9776 22.0507 16.4546 21.8123 16.7527C21.1565 17.5575 20.441 18.3922 20.4112 18.7201C20.4112 19.048 20.3814 19.3759 20.2622 19.674C20.1132 20.0913 19.5766 20.6875 18.7419 21.7308C18.265 22.327 18.5631 22.953 18.9506 23.3703C19.4275 23.9068 19.7256 24.503 20.3218 24.7713C20.918 25.0396 21.4546 24.8309 22.1104 24.98C22.7662 25.129 23.6008 25.4867 24.2864 26.6791C25.2403 28.3782 26.2836 31.0312 28.1318 33.2371C28.9664 34.2208 28.9664 35.9795 28.9664 36.5757C29.0261 41.7327 26.2836 46.5915 24.5547 49.6917C24.1374 50.4369 24.2268 51.0331 24.7932 51.0331C25.4192 51.0331 27.7741 51.0331 28.1616 51.0331C28.6087 51.0331 28.8472 50.5561 28.9068 50.0792C29.2049 45.8761 31.5896 38.1258 33.408 36.8142C36.4485 38.6921 39.4592 42.7462 37.9986 49.8109C37.9091 50.1984 37.5514 51.0331 38.4755 51.0331H41.3968C41.7545 51.0331 42.3805 50.884 42.3209 50.1984C42.1718 47.4262 39.8467 41.6134 39.2506 38.1854C38.863 36.0093 40.592 32.164 47.1499 35.115C49.6837 32.8794 52.9627 34.2506 51.5617 38.5729C50.1607 42.8952 48.9683 44.7732 44.1988 49.8109C43.6623 50.3773 43.6325 51.0331 44.4671 51.0331H47.5375C48.1933 51.0331 48.4615 50.8542 48.6702 50.3177C48.8789 49.7811 51.0549 42.925 55.3474 39.7056C55.6753 39.4672 55.9734 38.3642 56.6292 35.8603C58.7158 38.5729 58.9841 43.4914 55.4369 49.8407C55.0791 50.4965 55.2878 51.0033 55.7051 51.0033H58.4774C58.9841 51.0033 59.1332 50.735 59.3418 49.9599C59.5207 49.1849 59.7294 48.4099 59.9976 47.6348C60.2063 47.0685 60.2957 46.979 62.5016 47.0089C63.217 47.0089 63.1574 46.6511 63.1574 46.055C63.1872 37.4402 63.2468 28.5571 62.6208 25.5165Z" fill="white"/>
</g>
<defs>
<clipPath id="clip0_40000002_1727">
<rect width="90.6791" height="64" fill="white" transform="translate(0.320312)"/>
</clipPath>
</defs>
</svg>
